# File created by Blade
# Date/Time:  Thu Sep 25 19:26:26 2014
# Frame Rate: 120.000 fps
#------------------------------------------------------
:FULLY-SPECIFIED
:DEGREES
1181
root 0.552189 31.267658 -15.582447 54.939662 21.003678 2.938820
Spine 32.133338 3.883069 -12.819842
Head -20.456354 -13.400971 1.485549
LeftShoulder 10.672778 -5.125814 28.856143
LeftArm 45.422708 16.681385 -42.425600
LeftForeArm 4.126305 -0.000000 28.468182
LeftHand -23.261840 -0.000000 2.741501
LeftHandThumb1 -26.253704 0.000000 33.147579
RightShoulder -2.722950 22.543678 -26.921416
RightArm 24.843290 -44.222321 66.455087
RightForeArm -37.886463 -0.000000 43.469667
RightHand -4.329276 -0.000000 -19.816357
RightHandThumb1 -24.326973 -0.000000 -32.862282
LeftUpLeg -67.656881 2.659574 12.354355
LeftLeg -2.224007 -0.000000 0.000000
LeftFoot 3.235713 4.429797 -29.900272
LeftToeBase 4.314913 -0.000000 -0.000000
RightUpLeg -59.181829 -29.224690 0.767181
RightLeg 1.431125 -0.000000 -0.000000
RightFoot 1.544645 -17.991075 14.453004
RightToeBase 5.379368 -0.000000 -0.000000
1182
root 0.569012 31.278084 -15.544267 54.282071 20.845415 2.983353
Spine 31.604341 4.110326 -12.991356
Head -20.875117 -13.352474 2.277609
LeftShoulder 10.515934 -4.816101 28.981757
LeftArm 45.420510 17.372140 -42.925423
LeftForeArm 4.292761 -0.000000 28.634007
LeftHand -23.159164 -0.000000 2.435967
LeftHandThumb1 -26.253704 0.000000 33.147579
RightShoulder -3.178236 22.221896 -26.650765
RightArm 24.050144 -44.705673 66.835766
RightForeArm -37.514126 -0.000000 43.418658
RightHand -4.169273 -0.000000 -19.315767
RightHandThumb1 -24.326973 -0.000000 -32.862282
LeftUpLeg -66.904263 2.515481 12.338828
LeftLeg -2.196005 -0.000000 0.000000
LeftFoot 3.035779 4.416798 -29.981327
LeftToeBase 4.467672 -0.000000 -0.000000
RightUpLeg -58.490359 -29.225676 0.333851
RightLeg 1.620063 -0.000000 -0.000000
RightFoot 1.413576 -17.603319 14.547558
RightToeBase 5.296461 -0.000000 -0.000000
1183
root 0.588747 31.286799 -15.503271 53.624518 20.647735 3.042454
Spine 31.051542 4.271379 -13.237358
Head -21.240415 -13.267831 2.965177
LeftShoulder 10.294193 -4.551950 29.039521
LeftArm 45.308049 18.064090 -43.415288
LeftForeArm 4.425778 -0.000000 28.833137
LeftHand -23.241924 -0.000000 2.238016
LeftHandThumb1 -26.253704 0.000000 33.147579
RightShoulder -3.480401 21.885093 -26.362045
RightArm 23.280877 -45.076378 67.266560
RightForeArm -37.718347 -0.000000 43.210947
RightHand -4.078757 -0.000000 -18.550081
RightHandThumb1 -24.326973 -0.000000 -32.862282
LeftUpLeg -66.158146 2.371454 12.263860
LeftLeg -2.099288 -0.000000 0.000000
LeftFoot 2.847564 4.333238 -29.773373
LeftToeBase 4.101740 -0.000000 -0.000000
RightUpLeg -57.795551 -29.207625 -0.159679
RightLeg 1.834222 -0.000000 -0.000000
RightFoot 1.196188 -17.252913 14.509979
RightToeBase 5.726843 -0.000000 -0.000000
1184
root 0.601300 31.298301 -15.456472 52.946169 20.589582 3.103480
Spine 30.537452 4.307025 -13.293808
Head -21.569698 -13.234462 3.396517
LeftShoulder 10.149332 -4.249597 28.974595
LeftArm 45.149274 18.704754 -43.768585
LeftForeArm 4.538896 -0.000000 29.019524
LeftHand -23.217231 0.000000 2.042578
LeftHandThumb1 -26.253704 0.000000 33.147579
RightShoulder -3.709670 21.627752 -26.109300
RightArm 22.330488 -45.396210 67.725916
RightForeArm -37.082592 -0.000000 43.326756
RightHand -3.860198 -0.000000 -18.137624
RightHandThumb1 -24.326973 -0.000000 -32.862282
LeftUpLeg -65.382311 2.174495 12.333452
LeftLeg -2.093057 -0.000000 0.000000
LeftFoot 2.702297 4.292757 -29.942804
LeftToeBase 4.096697 -0.000000 -0.000000
RightUpLeg -57.010985 -29.264285 -0.541195
RightLeg 1.938385 -0.000000 -0.000000
RightFoot 1.115755 -16.951599 14.411186
RightToeBase 5.763302 -0.000000 -0.000000
1185
root 0.612738 31.306468 -15.410719 52.296208 20.524662 3.112590
Spine 29.933832 4.304062 -13.308373
Head -21.877869 -13.196887 3.703257
LeftShoulder 9.930250 -3.800112 28.833975
LeftArm 45.102663 19.286566 -43.990076
LeftForeArm 4.606836 0.000000 29.169618
LeftHand -23.081924 -0.000000 1.907186
LeftHandThumb1 -26.253704 0.000000 33.147579
RightShoulder -3.856324 21.716336 -26.005857
RightArm 20.794876 -45.667065 68.821447
RightForeArm -36.951258 0.000000 43.282012
RightHand -4.201653 -0.000000 -17.225701
RightHandThumb1 -24.326973 -0.000000 -32.862282
LeftUpLeg -64.701452 1.957889 12.536179
LeftLeg -1.943405 -0.000000 0.000000
LeftFoot 2.352693 4.368406 -29.994712
LeftToeBase 4.145888 -0.000000 -0.000000
RightUpLeg -56.395072 -29.373093 -0.720700
RightLeg 2.118527 -0.000000 -0.000000
RightFoot 1.022779 -16.540461 14.360823
RightToeBase 5.667807 -0.000000 -0.000000
1186
root 0.620262 31.314854 -15.352735 51.567069 20.419804 3.093646
Spine 29.431739 4.505932 -13.365506
Head -22.281084 -13.160905 4.261197
LeftShoulder 9.702151 -3.441333 28.763771
LeftArm 45.169447 19.848536 -44.129560
LeftForeArm 4.609281 0.000000 29.264185
LeftHand -22.930939 -0.000000 1.618126
LeftHandThumb1 -26.253704 0.000000 33.147579
RightShoulder -4.173987 21.099129 -25.731741
RightArm 20.333090 -45.734070 69.086287
RightForeArm -36.835929 -0.000000 43.153149
RightHand -4.280333 -0.000000 -16.777754
RightHandThumb1 -24.326973 -0.000000 -32.862282
LeftUpLeg -63.936273 1.829769 12.604238
LeftLeg -1.759410 -0.000000 0.000000
LeftFoot 1.976843 4.293668 -30.198269
LeftToeBase 4.348860 -0.000000 -0.000000
RightUpLeg -55.630221 -29.370459 -1.036450
RightLeg 2.262903 -0.000000 -0.000000
RightFoot 0.898238 -16.304926 14.338604
RightToeBase 5.654690 -0.000000 -0.000000
1187
root 0.627896 31.323816 -15.299134 50.900688 20.322159 3.110704
Spine 28.853729 4.564272 -13.439150
Head -22.631480 -13.140100 4.720754
LeftShoulder 9.619887 -3.121996 28.760184
LeftArm 44.748715 20.287021 -44.584617
LeftForeArm 4.948119 -0.000000 29.661634
LeftHand -22.966986 -0.000000 1.307212
LeftHandThumb1 -26.253704 0.000000 33.147579
RightShoulder -4.301146 20.913107 -25.537255
RightArm 19.189516 -45.843371 69.872030
RightForeArm -36.584154 -0.000000 43.032933
RightHand -4.228108 -0.000000 -16.475552
RightHandThumb1 -24.326973 -0.000000 -32.862282
LeftUpLeg -63.223800 1.672371 12.664002
LeftLeg -1.606982 -0.000000 0.000000
LeftFoot 1.666061 4.274229 -30.263823
LeftToeBase 4.358407 -0.000000 -0.000000
RightUpLeg -54.860810 -29.359288 -1.409386
RightLeg 2.353872 -0.000000 -0.000000
RightFoot 0.789666 -16.186599 14.348462
RightToeBase 5.630137 -0.000000 -0.000000
1188
root 0.637557 31.334573 -15.243132 50.249398 20.236804 3.193647
Spine 28.312405 4.670705 -13.523740
Head -23.016216 -13.200196 5.208384
LeftShoulder 9.496421 -2.860053 28.763603
LeftArm 44.583194 20.794523 -44.903946
LeftForeArm 4.961460 -0.000000 29.771890
LeftHand -22.999710 -0.000000 1.326934
LeftHandThumb1 -26.253704 0.000000 33.147579
RightShoulder -4.517747 20.692893 -25.350285
RightArm 18.085703 -45.925555 70.608261
RightForeArm -36.149850 -0.000000 42.949537
RightHand -4.244893 0.000000 -16.361466
RightHandThumb1 -24.326973 -0.000000 -32.862282
LeftUpLeg -62.515091 1.478893 12.629501
LeftLeg -1.452316 -0.000000 0.000000
LeftFoot 1.396336 4.253318 -30.232983
LeftToeBase 4.400675 -0.000000 -0.000000
RightUpLeg -54.129214 -29.440124 -1.770939
RightLeg 2.506885 -0.000000 -0.000000
RightFoot 0.643091 -16.003745 14.359328
RightToeBase 5.691536 -0.000000 -0.000000
1189
root 0.648682 31.343978 -15.185187 49.596471 20.131445 3.288256
Spine 27.780515 4.727392 -13.663893
Head -23.441332 -13.212558 5.702257
LeftShoulder 9.250661 -2.563925 28.724233
LeftArm 44.492440 21.294491 -45.114110
LeftForeArm 5.022126 -0.000000 29.842462
LeftHand -22.973020 -0.000000 1.328094
LeftHandThumb1 -26.253704 0.000000 33.147579
RightShoulder -4.749267 20.251620 -25.119954
RightArm 17.383351 -45.925239 71.089035
RightForeArm -35.701633 -0.000000 42.836045
RightHand -4.285976 -0.000000 -16.059615
RightHandThumb1 -24.326973 -0.000000 -32.862282
LeftUpLeg -61.771081 1.339065 12.477782
LeftLeg -1.353078 -0.000000 0.000000
LeftFoot 1.212788 4.100361 -30.218125
LeftToeBase 4.446208 -0.000000 -0.000000
RightUpLeg -53.407190 -29.532229 -2.141631
RightLeg 2.678679 -0.000000 -0.000000
RightFoot 0.481334 -15.818413 14.404844
RightToeBase 5.681683 -0.000000 -0.000000
